<?xml version="1.0" encoding="iso-8859-1"?>
<!-- Generator: Adobe Illustrator 19.0.0, SVG Export Plug-In . SVG Version: 6.00 Build 0)  -->
<svg version="1.1" id="Capa_1" xmlns="http://www.w3.org/2000/svg" xmlns:xlink="http://www.w3.org/1999/xlink" x="0px" y="0px"
	 viewBox="0 0 465.502 465.502" style="enable-background:new 0 0 465.502 465.502;" xml:space="preserve">
<g>
	
		<rect x="270.215" y="277.993" transform="matrix(-0.627 -0.779 0.779 -0.627 389.8004 773.9698)" style="fill:#1185E0;" width="219.948" height="31.346"/>
	
		<rect x="68.546" y="185.42" transform="matrix(-0.7816 -0.6237 0.6237 -0.7816 -33.7077 577.412)" style="fill:#1185E0;" width="31.345" height="218.373"/>
</g>
<path style="fill:#4DCFE0;" d="M232.49,294.4c-3.657,0-7.314-1.567-10.449-4.18L5.747,98.482l20.898-23.51L232.49,257.829
	L438.857,75.494l20.898,23.51L242.939,290.22C239.804,292.833,236.147,294.4,232.49,294.4z"/>
<path style="fill:#1185E0;" d="M449.829,394.71H15.673C6.792,394.71,0,387.918,0,379.037V86.465c0-8.882,6.792-15.673,15.673-15.673
	h434.155c8.882,0,15.673,6.792,15.673,15.673v292.571C465.502,387.918,458.71,394.71,449.829,394.71z M31.347,363.363h402.808
	V102.139H31.347V363.363z"/>
<g>
</g>
<g>
</g>
<g>
</g>
<g>
</g>
<g>
</g>
<g>
</g>
<g>
</g>
<g>
</g>
<g>
</g>
<g>
</g>
<g>
</g>
<g>
</g>
<g>
</g>
<g>
</g>
<g>
</g>
</svg>
